<?xml version="1.0" standalone="no"?>
<!DOCTYPE svg PUBLIC "-//W3C//DTD SVG 20010904//EN"
 "http://www.w3.org/TR/2001/REC-SVG-20010904/DTD/svg10.dtd">
<svg version="1.0" xmlns="http://www.w3.org/2000/svg"
 width="1024.000000pt" height="597.000000pt" viewBox="0 0 1024.000000 597.000000"
 preserveAspectRatio="xMidYMid meet">

<g transform="translate(0.000000,597.000000) scale(0.100000,-0.100000)"
fill="#000000" stroke="none">
<path d="M7460 5345 l0 -625 215 0 215 0 0 625 0 625 -215 0 -215 0 0 -625z"/>
<path d="M8992 5137 l-582 -582 153 -153 152 -152 585 585 585 585 -150 150
c-82 82 -152 150 -155 150 -3 0 -267 -262 -588 -583z"/>
<path d="M1055 4809 c-162 -21 -349 -93 -492 -191 -168 -115 -360 -339 -446
-520 -158 -334 -151 -772 18 -1108 61 -120 134 -220 239 -325 158 -158 345
-266 556 -322 127 -34 397 -44 535 -19 376 65 699 303 873 643 40 80 102 229
102 249 0 2 -114 4 -252 4 l-253 -1 -35 -62 c-20 -34 -75 -102 -126 -154 -79
-80 -104 -99 -185 -138 -52 -24 -123 -52 -159 -62 -88 -23 -281 -23 -370 0
-275 72 -511 315 -567 585 -24 120 -14 322 21 427 66 194 213 359 401 450 213
104 457 102 675 -7 69 -34 103 -60 180 -138 56 -56 109 -121 130 -157 l35 -62
253 -1 253 0 -6 23 c-20 66 -89 226 -125 287 -147 253 -406 462 -685 554 -154
50 -382 68 -570 45z"/>
<path d="M2692 3558 l3 -1263 238 -3 237 -2 0 1265 0 1265 -240 0 -240 0 2
-1262z"/>
<path d="M4190 4319 c-231 -16 -377 -75 -501 -198 -106 -106 -161 -231 -184
-414 l-7 -57 241 0 c205 0 241 2 241 15 0 34 45 131 79 168 51 56 107 79 214
85 105 6 207 -10 262 -41 108 -61 126 -215 34 -289 -34 -28 -55 -33 -310 -74
-397 -65 -530 -114 -650 -241 -98 -102 -136 -204 -145 -388 -22 -429 272 -650
761 -570 146 23 248 63 357 137 l57 38 3 -97 3 -98 238 -3 238 -2 -3 797 -3
798 -23 59 c-49 129 -120 209 -238 269 -180 90 -400 126 -664 106z m430 -1175
c0 -234 -41 -343 -158 -421 -83 -56 -172 -83 -273 -83 -167 0 -248 79 -249
241 0 65 4 85 28 130 49 96 82 110 417 189 77 18 158 43 180 56 22 13 43 24
48 24 4 0 7 -61 7 -136z"/>
<path d="M7462 4309 c-184 -28 -368 -120 -510 -254 -241 -227 -345 -482 -329
-809 13 -268 105 -474 299 -667 139 -138 281 -221 464 -270 109 -30 333 -32
449 -5 369 86 666 371 762 733 23 86 26 118 27 258 0 133 -4 175 -22 248 -47
189 -128 334 -266 475 -133 137 -279 223 -461 272 -93 25 -311 35 -413 19z
m279 -479 c167 -31 336 -186 388 -355 64 -207 15 -403 -138 -556 -86 -85 -150
-121 -256 -144 -114 -24 -194 -17 -308 25 -149 56 -291 225 -326 388 -15 73
-14 177 4 245 49 190 221 362 396 396 62 12 177 13 240 1z"/>
<path d="M6335 4276 c-168 -49 -239 -93 -357 -219 l-68 -72 0 123 0 122 -230
0 -230 0 2 -967 3 -968 235 0 235 0 6 560 c6 614 5 603 69 724 43 81 130 160
227 208 76 37 79 38 210 41 l133 4 0 239 0 239 -62 -1 c-40 0 -104 -12 -173
-33z"/>
<path d="M8930 3545 l0 -215 640 0 640 0 0 215 0 215 -640 0 -640 0 0 -215z"/>
<path d="M5636 2026 c-115 -43 -177 -183 -127 -291 79 -174 318 -180 397 -11
66 142 -22 299 -177 312 -33 3 -69 -1 -93 -10z"/>
<path d="M6997 1933 c-4 -3 -7 -145 -7 -315 l0 -308 -50 39 c-82 65 -146 84
-280 85 -96 1 -126 -3 -183 -22 -171 -59 -257 -171 -294 -382 -12 -67 -14
-144 -10 -355 5 -294 11 -335 67 -451 67 -137 228 -224 415 -224 124 0 211 30
298 102 l47 39 0 -60 0 -61 170 0 170 0 0 960 0 960 -168 0 c-93 0 -172 -3
-175 -7z m-144 -827 c45 -18 91 -75 113 -138 16 -45 19 -84 19 -248 0 -219
-11 -272 -68 -337 -42 -47 -82 -63 -164 -63 -175 0 -233 99 -233 400 0 238 32
334 123 379 50 25 160 29 210 7z"/>
<path d="M8080 1424 c-167 -36 -307 -149 -385 -309 -88 -182 -106 -462 -44
-685 81 -294 313 -444 659 -427 134 7 198 23 296 72 76 39 187 130 182 149 -2
7 -48 55 -103 108 l-100 96 -40 -35 c-22 -20 -65 -47 -95 -62 -49 -23 -67 -26
-170 -26 -99 0 -121 3 -156 22 -94 50 -147 126 -160 230 l-7 53 443 0 443 0
-6 158 c-6 168 -19 234 -66 337 -57 123 -161 229 -277 281 -115 51 -284 67
-414 38z m231 -290 c98 -29 179 -143 179 -252 l0 -32 -265 0 c-302 0 -277 -10
-250 95 28 106 83 167 173 191 64 17 99 17 163 -2z"/>
<path d="M9496 1424 c-108 -24 -191 -69 -272 -149 -79 -78 -115 -140 -146
-253 -19 -68 -21 -104 -21 -302 0 -199 2 -234 21 -303 31 -113 75 -188 153
-261 142 -134 342 -185 556 -140 222 46 377 198 430 421 28 119 25 477 -5 585
-29 107 -62 167 -133 243 -135 143 -363 206 -583 159z m249 -323 c56 -25 101
-81 122 -149 26 -82 26 -382 0 -464 -34 -110 -111 -167 -225 -168 -109 0 -186
59 -219 168 -26 83 -26 382 0 464 20 65 63 120 116 148 48 26 151 26 206 1z"/>
<path d="M4083 1403 c4 -16 429 -1172 487 -1325 l21 -58 139 0 139 0 21 58
c12 31 125 340 252 687 127 347 233 636 235 643 4 9 -36 12 -180 12 l-185 0
-107 -327 c-58 -181 -120 -372 -138 -425 -17 -54 -34 -98 -37 -98 -3 0 -69
191 -145 425 l-139 425 -184 0 c-171 0 -184 -1 -179 -17z"/>
<path d="M5540 720 l0 -700 175 0 175 0 0 700 0 700 -175 0 -175 0 0 -700z"/>
</g>
</svg>
