<svg id="Capa_1" data-name="Capa 1" xmlns="http://www.w3.org/2000/svg" viewBox="0 0 77.23 32.86"><path d="M16,6.86a5.88,5.88,0,0,0,1.34-4.24,6.09,6.09,0,0,0-3.91,2,5.6,5.6,0,0,0-1.41,4,4.61,4.61,0,0,0,4-1.79" transform="translate(-1.39 -2.62)"/><path d="M17.38,9c-2.18-.13-4,1.22-5.07,1.22S9.68,9.1,8,9.1A6.44,6.44,0,0,0,2.5,12.44c-2.32,4-.65,10,1.66,13.28,1.09,1.61,2.44,3.41,4.18,3.34S10.65,28,12.64,28,15.2,29.06,17,29s2.95-1.61,4-3.28A12.7,12.7,0,0,0,22.84,22a5.81,5.81,0,0,1-.71-10.33A6,6,0,0,0,17.38,9" transform="translate(-1.39 -2.62)"/><path d="M36.25,4.48a7.64,7.64,0,0,1,8,8c0,4.75-3.34,8-8.15,8h-5.2v8.28H27.14V4.48ZM30.93,17.32h4.3c3.27,0,5.13-1.8,5.13-4.82S38.5,7.69,35.23,7.69H30.86v9.63Z" transform="translate(-1.39 -2.62)"/><path d="M45.24,23.8c0-3.08,2.37-5,6.61-5.26l4.88-.26V16.93c0-2-1.35-3.14-3.53-3.14s-3.4,1-3.72,2.56H46c.19-3.2,3-5.58,7.32-5.58s7.06,2.25,7.06,5.84v12.2H56.92V25.92h-.06a6.3,6.3,0,0,1-5.59,3.21C47.68,29.13,45.24,26.94,45.24,23.8Zm11.49-1.61V20.78L52.36,21c-2.18.13-3.4,1.09-3.4,2.63s1.29,2.57,3.21,2.57C54.74,26.24,56.73,24.51,56.73,22.19Z" transform="translate(-1.39 -2.62)"/><path d="M63.59,35.35v-3a7.52,7.52,0,0,0,1.16.06c1.67,0,2.57-.7,3.14-2.5,0-.06.33-1.09.33-1.09L61.8,11.16h3.91l4.5,14.44h.06l4.49-14.44h3.85L72,29.83c-1.54,4.3-3.27,5.65-6.93,5.65C64.81,35.42,63.92,35.42,63.59,35.35Z" transform="translate(-1.39 -2.62)"/></svg>