<svg xmlns="http://www.w3.org/2000/svg" width="36.245" height="25.371" viewBox="0 0 36.245 25.371">
  <path id="Icon_awesome-cloud-download-alt" data-name="Icon awesome-cloud-download-alt" d="M30.446,13.271a5.443,5.443,0,0,0-5.074-7.4,5.409,5.409,0,0,0-3.019.917A9.062,9.062,0,0,0,5.437,11.311c0,.153.006.306.011.459A8.157,8.157,0,0,0,8.155,27.621H29a7.249,7.249,0,0,0,1.45-14.351Zm-7.526,5.023L16.95,24.263a.909.909,0,0,1-1.28,0L9.7,18.294a.906.906,0,0,1,.64-1.546h3.7V10.405a.909.909,0,0,1,.906-.906h2.718a.909.909,0,0,1,.906.906v6.343h3.7A.906.906,0,0,1,22.919,18.294Z" transform="translate(0 -2.25)" fill="#fff"/>
</svg>
