<svg id="Capa_1" data-name="Capa 1" xmlns="http://www.w3.org/2000/svg" viewBox="0 0 54.78 58.53"><defs><style>.cls-1{fill:#ffd400;}.cls-2{fill:#f33;}.cls-3{fill:#48ff48;}.cls-4{fill:#3bccff;}</style></defs><path id="path16" class="cls-1" d="M40.51,39.24c6.93-3.8,12.23-6.7,12.69-6.93,1.45-.77,2.94-2.8,0-4.39-1-.5-6.07-3.31-12.69-6.93l-9.1,9.15Z" transform="translate(-0.11 -0.97)"/><path id="path23" class="cls-2" d="M31.41,30.14,2.33,59.45a3.87,3.87,0,0,0,2.36-.59L40.51,39.24l-9.1-9.1Z" transform="translate(-0.11 -0.97)"/><path id="path30" class="cls-3" d="M31.41,30.14,40.51,21S6.72,2.56,4.69,1.47A3.56,3.56,0,0,0,2.28,1Z" transform="translate(-0.11 -0.97)"/><path id="path37" class="cls-4" d="M31.41,30.14,2.28,1C1.11,1.29.11,2.33.11,4.46V56c0,2,.77,3.36,2.22,3.49Z" transform="translate(-0.11 -0.97)"/></svg>