<svg id="Capa_9" data-name="Capa 9" xmlns="http://www.w3.org/2000/svg" width="288.667" height="282.349" viewBox="0 0 288.667 282.349">
  <path id="Trazado_1" data-name="Trazado 1" d="M140.5,195.428v61.257L300.324,170.7s13.152-8.089,0-15.342l-74.339-38.774L286.5,110.74l62.372,35.677s31.577,16.458,1.241,33.655L133.445,299.391s-26.3,15.956-26.3-13.376V193.964Z" transform="translate(-74.617 -21.375)" fill="#6259ca"/>
  <path id="Trazado_2" data-name="Trazado 2" d="M202.464,88.248,107.12,105.557V65.5s2.022-31.354,29.289-13.152Z" transform="translate(-74.625 -46.667)" fill="#6259ca"/>
  <path id="Trazado_3" data-name="Trazado 3" d="M198.351,112.763,92.072,119.332.09,81.9,11.806,67.56H37.594Z" transform="translate(0.034 26.673)" fill="#6259ca"/>
  <path id="Trazado_4" data-name="Trazado 4" d="M140.51,191.381s-21.3-3.891-33.39,15.593V173.5h33.39Z" transform="translate(-74.625 3.398)" fill="#6259ca" opacity="0.7"/>
  <path id="Trazado_5" data-name="Trazado 5" d="M107.12,174.9s4.045-14.17,22.316-11.158l119.612.962,24.031-18.132H123.313s-16.193-.46-15.579,12.553Z" transform="translate(-74.625 -7.232)" fill="#6259ca"/>
  <path id="Trazado_6" data-name="Trazado 6" d="M107.12,196.106s5.063-12.176,34.394-12.148,66.766-.628,66.766-.628,13.152-1.395,22.316-9.47l20.224-15.175H117.246S107.12,156.663,107.12,168.8Z" transform="translate(-74.625 -2.499)" fill="#6259ca"/>
  <path id="Trazado_7" data-name="Trazado 7" d="M344.293,87.106l8.438-23.836L102.642,109.3S83.423,113.1,84.064,135.322Z" transform="translate(-83.732 -40.113)" fill="#6259ca"/>
  <path id="Trazado_8" data-name="Trazado 8" d="M84.224,142.381s-.349-4.031,14.952-7.085l198.289-20.224s38.662-3.04,46.751-35.412L96.358,116.076S81.183,118.113,84.224,142.381Z" transform="translate(-83.821 -33.643)" fill="#6259ca"/>
</svg>
