<svg xmlns="http://www.w3.org/2000/svg" width="239.983" height="33.816" viewBox="0 0 239.983 33.816">
  <g id="logo-light_1_" data-name="logo-light (1)" transform="translate(-0.001 0.003)">
    <g id="Capa_9" data-name="Capa 9" transform="translate(0.001 -0.003)">
      <path id="Trazado_1" data-name="Trazado 1" d="M111.136,120.883v7.337l19.141-10.3s1.575-.969,0-1.837l-8.9-4.644,7.248-.7,7.47,4.273s3.782,1.971.149,4.031l-25.95,14.29s-3.15,1.911-3.15-1.6V120.707Z" transform="translate(-103.245 -100.037)" fill="#fff"/>
      <path id="Trazado_2" data-name="Trazado 2" d="M118.539,51.647,107.12,53.72v-4.8s.242-3.755,3.508-1.575Z" transform="translate(-103.228 -46.667)" fill="#fff"/>
      <path id="Trazado_3" data-name="Trazado 3" d="M23.835,72.974l-12.729.787L.09,69.277l1.4-1.717H4.582Z" transform="translate(-0.075 -56.274)" fill="#fff"/>
      <path id="Trazado_4" data-name="Trazado 4" d="M111.119,175.641a4.039,4.039,0,0,0-4,1.868V173.5h4Z" transform="translate(-103.228 -152.313)" fill="#fff" opacity="0.7"/>
      <path id="Trazado_5" data-name="Trazado 5" d="M107.12,149.961a2.173,2.173,0,0,1,2.673-1.336l14.326.115L127,146.569H109.059s-1.939-.055-1.866,1.5Z" transform="translate(-103.228 -129.881)" fill="#fff"/>
      <path id="Trazado_6" data-name="Trazado 6" d="M107.12,163.056s.606-1.458,4.119-1.455,8-.075,8-.075a5.416,5.416,0,0,0,2.673-1.134l2.422-1.817h-16s-1.213-.242-1.213,1.211Z" transform="translate(-103.228 -139.869)" fill="#fff"/>
      <path id="Trazado_7" data-name="Trazado 7" d="M115.217,66.125l1.011-2.855L86.276,68.782A2.927,2.927,0,0,0,84.051,71.9Z" transform="translate(-84.011 -60.497)" fill="#fff"/>
      <path id="Trazado_8" data-name="Trazado 8" d="M83.869,87.172s-.042-.483,1.791-.849L109.409,83.9s4.63-.364,5.6-4.241L85.323,84.021S83.505,84.265,83.869,87.172Z" transform="translate(-83.821 -74.149)" fill="#fff"/>
    </g>
    <g id="Capa_7" data-name="Capa 7" transform="translate(42.266 5.084)">
      <path id="Trazado_9" data-name="Trazado 9" d="M336.84,89.863V78.12h7.821v2.111h-4.954v3.115h4.26v2.111h-4.26v4.4Z" transform="translate(-336.84 -77.953)" fill="#fff"/>
      <path id="Trazado_10" data-name="Trazado 10" d="M404.342,85.617v-7.5h2.883v7.119c0,3.585-2.469,4.791-5.39,4.791-3.411,0-4.844-1.824-4.844-4.238V78.12h2.883v7.171c0,1.67.66,2.6,2.355,2.6C403.6,87.887,404.342,87.234,404.342,85.617Z" transform="translate(-386.942 -77.953)" fill="#fff"/>
      <path id="Trazado_11" data-name="Trazado 11" d="M479.043,78.12v9.633H483.9v2.11H476.16V78.12Z" transform="translate(-452.888 -77.953)" fill="#fff"/>
      <path id="Trazado_12" data-name="Trazado 12" d="M536.343,78.12v9.633h4.863v2.11H533.46V78.12Z" transform="translate(-500.616 -77.953)" fill="#fff"/>
      <path id="Trazado_13" data-name="Trazado 13" d="M603.25,89.863V78.12h7.016v1.189h-5.507v4.009H609.6v1.189h-4.844v4.176h5.766v1.189Z" transform="translate(-558.748 -77.953)" fill="#fff"/>
      <path id="Trazado_14" data-name="Trazado 14" d="M664.186,79.712c.037.251.057,2.7.057,3.115v7.036H662.81V78.12h2.111l4.447,7.438c.132.234,1.415,2.4,1.527,2.646h.132c-.037-.351-.037-2.881-.037-3.149V78.12H672.4V89.863H670.33l-4.482-7.489c-.132-.234-1.395-2.379-1.5-2.663Z" transform="translate(-608.359 -77.953)" fill="#fff"/>
      <path id="Trazado_15" data-name="Trazado 15" d="M735.825,79.309H732.3V78.12h8.538v1.189H737.33V89.863h-1.5Z" transform="translate(-666.241 -77.953)" fill="#fff"/>
      <path id="Trazado_16" data-name="Trazado 16" d="M798.7,78.12c2.751,0,4.41.955,4.41,3.3a3.129,3.129,0,0,1-2.978,3.2v.067a3.569,3.569,0,0,1,1.6,1.5l2.43,3.675h-1.789l-2.394-3.747A2.2,2.2,0,0,0,797.929,85h-1.036V89.87h-1.5V78.12Zm-1.809,5.713h1.7c1.827,0,2.977-.636,2.977-2.262s-1.074-2.262-3.067-2.262h-1.6Z" transform="translate(-718.793 -77.953)" fill="#fff"/>
      <path id="Trazado_17" data-name="Trazado 17" d="M861.58,89.863V78.12H868.6v1.189h-5.509v4.009h4.844v1.189h-4.844v4.176h5.768v1.189Z" transform="translate(-773.926 -77.953)" fill="#fff"/>
      <path id="Trazado_18" data-name="Trazado 18" d="M915.295,79.309H911.77V78.12h8.538v1.189H916.8V89.863h-1.5Z" transform="translate(-815.732 -77.953)" fill="#fff"/>
      <path id="Trazado_19" data-name="Trazado 19" d="M974.83,89.863V78.12h7.016v1.189h-5.507v4.009h4.844v1.189h-4.844v4.176H982.1v1.189Z" transform="translate(-868.259 -77.953)" fill="#fff"/>
      <path id="Trazado_20" data-name="Trazado 20" d="M1035.766,79.712c.038.251.057,2.7.057,3.115v7.036h-1.433V78.12h2.106l4.447,7.438c.134.234,1.415,2.4,1.527,2.646h.132c-.037-.351-.037-2.881-.037-3.149V78.12h1.413V89.863h-2.073l-4.485-7.489c-.132-.234-1.395-2.379-1.5-2.663Z" transform="translate(-917.87 -77.953)" fill="#fff"/>
      <path id="Trazado_21" data-name="Trazado 21" d="M1114.26,78.12h1.5V89.863h-1.5Z" transform="translate(-984.398 -77.953)" fill="#fff"/>
      <path id="Trazado_22" data-name="Trazado 22" d="M1151.947,86.5h.114l3.787-8.376h2.394V89.863h-1.452V79.7h-.112c-1.074,2.278-2.826,6.2-3.9,8.476h-1.6L1147.3,79.7h-.112V89.863h-1.433V78.12h2.412Z" transform="translate(-1010.628 -77.953)" fill="#fff"/>
      <path id="Trazado_23" data-name="Trazado 23" d="M1243,78.12h1.5V89.863H1243Z" transform="translate(-1091.633 -77.953)" fill="#fff"/>
      <path id="Trazado_24" data-name="Trazado 24" d="M1274.33,89.863V78.12h7.016v1.189h-5.5v4.009h4.844v1.189h-4.844v4.176h5.766v1.189Z" transform="translate(-1117.729 -77.953)" fill="#fff"/>
      <path id="Trazado_25" data-name="Trazado 25" d="M1335.266,79.712c.037.251.057,2.7.057,3.115v7.036h-1.433V78.12H1336l4.448,7.438c.13.234,1.413,2.4,1.525,2.646h.132c-.037-.351-.037-2.881-.037-3.149V78.12h1.413V89.863h-2.073l-4.485-7.489c-.132-.234-1.395-2.379-1.5-2.663Z" transform="translate(-1167.34 -77.953)" fill="#fff"/>
      <path id="Trazado_26" data-name="Trazado 26" d="M1406.9,79.309h-3.525V78.12h8.538v1.189h-3.508V89.863h-1.5Z" transform="translate(-1225.222 -77.953)" fill="#fff"/>
      <path id="Trazado_27" data-name="Trazado 27" d="M1464.151,89.2c-3.147,0-5.051-1.657-5.051-5.98s2.018-6.1,5.2-6.1c3.129,0,5.051,1.659,5.051,5.98S1467.318,89.2,1464.151,89.2Zm.094-1.206c2.187,0,3.563-1.139,3.563-4.774,0-3.675-1.413-4.891-3.618-4.891-2.15,0-3.543,1.123-3.543,4.774S1462.06,87.991,1464.245,87.991Z" transform="translate(-1271.635 -77.12)" fill="#fff"/>
      <path id="Trazado_28" data-name="Trazado 28" d="M347.72,186.017V180.58h2.793v.434h-2.327v2.033h2.056v.443h-2.056v2.1h2.444v.434Z" transform="translate(-345.903 -163.298)" fill="#fff"/>
      <path id="Trazado_29" data-name="Trazado 29" d="M385.7,180.58v5h2.427v.434H385.24V180.58Z" transform="translate(-377.155 -163.298)" fill="#fff"/>
      <path id="Trazado_30" data-name="Trazado 30" d="M437.239,184.708h.047l1.707-4.128h.775v5.437h-.449v-4.894h-.047c-.558,1.336-1.154,2.738-1.714,4.081h-.578l-1.705-4.081h-.047v4.894h-.458V180.58h.775Z" transform="translate(-418.412 -163.298)" fill="#fff"/>
      <path id="Trazado_31" data-name="Trazado 31" d="M487.25,186.017V180.58h2.8v.434h-2.339v2.033h2.056v.443h-2.056v2.1h2.444v.434Z" transform="translate(-462.125 -163.298)" fill="#fff"/>
      <path id="Trazado_32" data-name="Trazado 32" d="M520.819,185.529a1.542,1.542,0,0,0,.737.155c.5,0,.7-.225.7-.737V180.58h.468v4.368a1.087,1.087,0,0,1-1.226,1.169,2.12,2.12,0,0,1-.835-.155Z" transform="translate(-489.954 -163.298)" fill="#fff"/>
      <path id="Trazado_33" data-name="Trazado 33" d="M556.045,185.688c-1.273,0-2.045-.768-2.045-2.773s.8-2.825,2.1-2.825c1.273,0,2.04.777,2.04,2.77C558.146,184.881,557.341,185.688,556.045,185.688Zm.038-.443c.969,0,1.582-.551,1.582-2.327s-.62-2.382-1.6-2.382-1.584.551-1.584,2.327.628,2.39,1.6,2.39Z" transform="translate(-517.725 -162.89)" fill="#fff"/>
      <path id="Trazado_34" data-name="Trazado 34" d="M601.139,180.58c1.111,0,1.792.443,1.792,1.513a1.4,1.4,0,0,1-1.248,1.473v.03a1.438,1.438,0,0,1,.643.668l1.047,1.752h-.558l-1-1.729a1,1,0,0,0-.939-.59h-.519v2.319h-.466V180.58Zm-.79,2.691h.768c.783,0,1.336-.3,1.336-1.124s-.488-1.133-1.388-1.133h-.713Z" transform="translate(-555.95 -163.298)" fill="#fff"/>
      <path id="Trazado_35" data-name="Trazado 35" d="M654.18,186.017V180.58h2.793v.434h-2.322v2.033h2.056v.443h-2.056v2.1h2.444v.434Z" transform="translate(-601.171 -163.298)" fill="#fff"/>
      <path id="Trazado_36" data-name="Trazado 36" d="M692.133,181.123v4.894h-.443V180.58h.72l2.025,3.794.59,1.1h.058V180.58h.434v5.437H694.8l-2.016-3.777-.6-1.118Z" transform="translate(-632.415 -163.298)" fill="#fff"/>
      <path id="Trazado_37" data-name="Trazado 37" d="M734.782,181.014H733.3v-.434h3.421v.434h-1.467v5h-.464Z" transform="translate(-667.074 -163.298)" fill="#fff"/>
      <path id="Trazado_38" data-name="Trazado 38" d="M773.736,180.58c1.111,0,1.792.443,1.792,1.513a1.4,1.4,0,0,1-1.249,1.473v.03a1.432,1.432,0,0,1,.645.668l1.047,1.752h-.565l-1-1.729a1,1,0,0,0-.939-.59h-.519v2.319h-.466V180.58Zm-.79,2.691h.767c.785,0,1.336-.3,1.336-1.124s-.488-1.133-1.388-1.133h-.713Z" transform="translate(-699.71 -163.298)" fill="#fff"/>
      <path id="Trazado_39" data-name="Trazado 39" d="M813.3,186.017V180.58h2.79v.434h-2.324v2.033h2.055v.443h-2.055v2.1h2.444v.434Z" transform="translate(-733.711 -163.298)" fill="#fff"/>
      <path id="Trazado_40" data-name="Trazado 40" d="M848.4,181.014H846.92v-.434h3.421v.434h-1.475v5H848.4Z" transform="translate(-761.715 -163.298)" fill="#fff"/>
      <path id="Trazado_41" data-name="Trazado 41" d="M886.06,186.017V180.58h2.793v.434h-2.327v2.033h2.055v.443h-2.055v2.1h2.444v.434Z" transform="translate(-794.317 -163.298)" fill="#fff"/>
      <path id="Trazado_42" data-name="Trazado 42" d="M924.021,181.123v4.894h-.441V180.58h.722l2.021,3.794.59,1.1h.062V180.58h.434v5.437H926.7l-2.018-3.777-.6-1.118Z" transform="translate(-825.569 -163.298)" fill="#fff"/>
      <path id="Trazado_43" data-name="Trazado 43" d="M969.55,180.58h.464v5.437h-.464Z" transform="translate(-863.861 -163.298)" fill="#fff"/>
      <path id="Trazado_44" data-name="Trazado 44" d="M997.836,184.708h.047l1.706-4.128h.777v5.437h-.458v-4.894h-.047c-.56,1.336-1.156,2.738-1.714,4.081h-.575l-1.707-4.081h-.047v4.894h-.458V180.58h.775Z" transform="translate(-885.359 -163.298)" fill="#fff"/>
      <path id="Trazado_45" data-name="Trazado 45" d="M1048.34,180.58h.466v5.437h-.466Z" transform="translate(-929.489 -163.298)" fill="#fff"/>
      <path id="Trazado_46" data-name="Trazado 46" d="M1074.16,186.017V180.58h2.793v.434h-2.329v2.033h2.056v.443h-2.056v2.1h2.444v.434Z" transform="translate(-950.996 -163.298)" fill="#fff"/>
      <path id="Trazado_47" data-name="Trazado 47" d="M1112.113,181.123v4.894h-.443V180.58h.723l2.025,3.794.59,1.1h.062V180.58h.436v5.437h-.715l-2.016-3.777-.6-1.118Z" transform="translate(-982.24 -163.298)" fill="#fff"/>
      <path id="Trazado_48" data-name="Trazado 48" d="M1154.762,181.014h-1.482v-.434h3.421v.434h-1.475v5h-.464Z" transform="translate(-1016.9 -163.298)" fill="#fff"/>
      <path id="Trazado_49" data-name="Trazado 49" d="M1192.93,185.7c-1.271,0-2.04-.775-2.04-2.77s.8-2.825,2.1-2.825c1.273,0,2.041.777,2.041,2.77C1195.033,184.9,1194.233,185.7,1192.93,185.7Zm.038-.443c.971,0,1.584-.551,1.584-2.327s-.621-2.382-1.6-2.382-1.582.551-1.582,2.327.628,2.39,1.6,2.39Z" transform="translate(-1048.227 -162.906)" fill="#fff"/>
      <path id="Trazado_50" data-name="Trazado 50" d="M1250.18,186.017V180.58h2.793v.434h-2.322v2.033h2.056v.443h-2.056v2.1h2.444v.434Z" transform="translate(-1097.614 -163.298)" fill="#fff"/>
      <path id="Trazado_51" data-name="Trazado 51" d="M1288.143,181.123v4.894h-.443V180.58h.718l2.025,3.794.59,1.1h.062V180.58h.434v5.437h-.713l-2.018-3.777-.6-1.118Z" transform="translate(-1128.866 -163.298)" fill="#fff"/>
      <path id="Trazado_52" data-name="Trazado 52" d="M1347.143,180.58v5h2.431v.434h-2.893V180.58Z" transform="translate(-1177.994 -163.298)" fill="#fff"/>
      <path id="Trazado_53" data-name="Trazado 53" d="M1383.16,180.58h.474v5.437h-.466Z" transform="translate(-1208.38 -163.298)" fill="#fff"/>
      <path id="Trazado_54" data-name="Trazado 54" d="M1409.439,181.123v4.894H1409V180.58h.722l2.025,3.794.59,1.1h.062V180.58h.434v5.437h-.713l-2.018-3.777-.6-1.118Z" transform="translate(-1229.904 -163.298)" fill="#fff"/>
      <path id="Trazado_55" data-name="Trazado 55" d="M1454.49,186.017V180.58h2.791v.434h-2.327v2.033h2.056v.443h-2.056v2.1h2.444v.434Z" transform="translate(-1267.795 -163.298)" fill="#fff"/>
      <path id="Trazado_56" data-name="Trazado 56" d="M1490.347,180.58l1.791,5.437h-.5l-.551-1.67h-2.267l-.551,1.67h-.488l1.792-5.437Zm-1.4,3.327h2l-.69-2.11-.3-.9h-.032l-.286.885Z" transform="translate(-1295.524 -163.298)" fill="#fff"/>
    </g>
  </g>
</svg>
